<svg width="195" height="167" viewBox="0 0 195 167" fill="none" xmlns="http://www.w3.org/2000/svg">
<path d="M138.45 150.3H56.55C45.7801 150.3 37.05 142.823 37.05 133.6V33.4C37.05 24.1765 45.7801 16.7 56.55 16.7H138.45C149.22 16.7 157.95 24.1765 157.95 33.4V133.6C157.95 142.823 149.22 150.3 138.45 150.3Z" fill="#FEFDEF"/>
<path d="M98.4438 78.4901C98.1123 68.789 92.081 60.7146 83.9592 58.3298H73.9908C65.871 60.7146 59.8377 68.789 59.5062 78.4901H98.4438Z" fill="#78A2D2"/>
<path d="M78.975 39.2451C77.4386 39.2451 75.9171 39.5043 74.4976 40.0078C73.0781 40.5114 71.7883 41.2495 70.7019 42.1799C69.6154 43.1103 68.7536 44.2149 68.1656 45.4306C67.5777 46.6463 67.275 47.9493 67.275 49.2651C67.275 50.581 67.5777 51.8839 68.1656 53.0996C68.7536 54.3153 69.6154 55.4199 70.7019 56.3503C71.7883 57.2808 73.0781 58.0188 74.4976 58.5224C75.9171 59.0259 77.4386 59.2851 78.975 59.2851C80.5115 59.2851 82.0329 59.0259 83.4524 58.5224C84.8719 58.0188 86.1617 57.2808 87.2482 56.3503C88.3346 55.4199 89.1964 54.3153 89.7844 53.0996C90.3724 51.8839 90.675 50.581 90.675 49.2651C90.675 47.9493 90.3724 46.6463 89.7844 45.4306C89.1964 44.2149 88.3346 43.1103 87.2482 42.1799C86.1617 41.2495 84.8719 40.5114 83.4524 40.0078C82.0329 39.5043 80.5115 39.2451 78.975 39.2451Z" fill="#EAD6C7"/>
<path d="M138.45 151.97H56.55C44.7232 151.97 35.1 143.729 35.1 133.6V33.4C35.1 23.2715 44.7232 15.03 56.55 15.03H138.45C150.277 15.03 159.9 23.2715 159.9 33.4V133.6C159.9 143.729 150.277 151.97 138.45 151.97ZM56.55 18.37C46.8741 18.37 39 25.1135 39 33.4V133.6C39 141.887 46.8741 148.63 56.55 148.63H138.45C148.126 148.63 156 141.887 156 133.6V33.4C156 25.1135 148.126 18.37 138.45 18.37H56.55Z" fill="#1F212B"/>
<path d="M131.625 140.28H63.375C55.3098 140.28 48.75 134.662 48.75 127.755V39.245C48.75 32.3379 55.3098 26.72 63.375 26.72C63.9132 26.72 64.35 27.0941 64.35 27.555C64.35 28.0159 63.9132 28.39 63.375 28.39C56.3862 28.39 50.7 33.2597 50.7 39.245V127.755C50.7 133.74 56.3862 138.61 63.375 138.61H131.625C138.614 138.61 144.3 133.74 144.3 127.755V99.365C144.3 98.904 144.737 98.53 145.275 98.53C145.813 98.53 146.25 98.904 146.25 99.365V127.755C146.25 134.662 139.69 140.28 131.625 140.28ZM145.275 96.86C144.737 96.86 144.3 96.4859 144.3 96.025V86.005C144.3 85.544 144.737 85.17 145.275 85.17C145.813 85.17 146.25 85.544 146.25 86.005V96.025C146.25 96.4859 145.813 96.86 145.275 96.86ZM145.275 83.5C144.737 83.5 144.3 83.1259 144.3 82.665V77.655C144.3 77.194 144.737 76.82 145.275 76.82C145.813 76.82 146.25 77.194 146.25 77.655V82.665C146.25 83.1259 145.813 83.5 145.275 83.5Z" fill="#1F212B"/>
<path d="M135.525 66.8H106.275C105.737 66.8 105.3 66.4259 105.3 65.965C105.3 65.5041 105.737 65.13 106.275 65.13H135.525C136.063 65.13 136.5 65.5041 136.5 65.965C136.5 66.4259 136.063 66.8 135.525 66.8ZM135.525 55.11H106.275C105.737 55.11 105.3 54.7359 105.3 54.275C105.3 53.8141 105.737 53.44 106.275 53.44H135.525C136.063 53.44 136.5 53.8141 136.5 54.275C136.5 54.7359 136.063 55.11 135.525 55.11ZM135.525 43.42H106.275C105.737 43.42 105.3 43.0459 105.3 42.585C105.3 42.1241 105.737 41.75 106.275 41.75H135.525C136.063 41.75 136.5 42.1241 136.5 42.585C136.5 43.0459 136.063 43.42 135.525 43.42ZM135.525 78.49H106.275C105.737 78.49 105.3 78.1159 105.3 77.655C105.3 77.1941 105.737 76.82 106.275 76.82H135.525C136.063 76.82 136.5 77.1941 136.5 77.655C136.5 78.1159 136.063 78.49 135.525 78.49ZM135.525 90.18H59.475C58.9368 90.18 58.5 89.8059 58.5 89.345C58.5 88.8841 58.9368 88.51 59.475 88.51H135.525C136.063 88.51 136.5 88.8841 136.5 89.345C136.5 89.8059 136.063 90.18 135.525 90.18ZM84.825 101.87H59.475C58.9368 101.87 58.5 101.496 58.5 101.035C58.5 100.574 58.9368 100.2 59.475 100.2H84.825C85.3632 100.2 85.8 100.574 85.8 101.035C85.8 101.496 85.3632 101.87 84.825 101.87ZM135.525 101.87H90.675C90.1368 101.87 89.7 101.496 89.7 101.035C89.7 100.574 90.1368 100.2 90.675 100.2H135.525C136.063 100.2 136.5 100.574 136.5 101.035C136.5 101.496 136.063 101.87 135.525 101.87ZM90.675 113.56H59.475C58.9368 113.56 58.5 113.186 58.5 112.725C58.5 112.264 58.9368 111.89 59.475 111.89H90.675C91.2132 111.89 91.65 112.264 91.65 112.725C91.65 113.186 91.2132 113.56 90.675 113.56ZM116.025 113.56H96.525C95.9868 113.56 95.55 113.186 95.55 112.725C95.55 112.264 95.9868 111.89 96.525 111.89H116.025C116.563 111.89 117 112.264 117 112.725C117 113.186 116.563 113.56 116.025 113.56ZM135.525 113.56H121.875C121.337 113.56 120.9 113.186 120.9 112.725C120.9 112.264 121.337 111.89 121.875 111.89H135.525C136.063 111.89 136.5 112.264 136.5 112.725C136.5 113.186 136.063 113.56 135.525 113.56ZM104.325 125.25H59.475C58.9368 125.25 58.5 124.876 58.5 124.415C58.5 123.954 58.9368 123.58 59.475 123.58H104.325C104.863 123.58 105.3 123.954 105.3 124.415C105.3 124.876 104.863 125.25 104.325 125.25ZM135.525 125.25H110.175C109.637 125.25 109.2 124.876 109.2 124.415C109.2 123.954 109.637 123.58 110.175 123.58H135.525C136.063 123.58 136.5 123.954 136.5 124.415C136.5 124.876 136.063 125.25 135.525 125.25ZM59.475 80.16C58.9368 80.16 58.5 79.7859 58.5 79.325C58.5 69.123 64.74 60.1634 73.6749 57.5399C74.1839 57.3912 74.7376 57.6233 74.9132 58.0592C75.0867 58.4951 74.8156 58.9694 74.3067 59.1197C66.1479 61.5161 60.45 69.8244 60.45 79.325C60.45 79.7859 60.0132 80.16 59.475 80.16ZM98.475 80.16C97.9368 80.16 97.5 79.7859 97.5 79.325C97.5 69.8244 91.8021 61.5161 83.6433 59.1197C83.1344 58.9694 82.8633 58.4951 83.0369 58.0592C83.2104 57.6217 83.7661 57.3912 84.2751 57.5399C93.21 60.1634 99.45 69.123 99.45 79.325C99.45 79.7859 99.0132 80.16 98.475 80.16Z" fill="#1F212B"/>
<path d="M78.975 60.1199C71.9862 60.1199 66.3 55.2502 66.3 49.2649C66.3 43.2796 71.9862 38.4099 78.975 38.4099C85.9638 38.4099 91.65 43.2796 91.65 49.2649C91.65 55.2502 85.9638 60.1199 78.975 60.1199ZM78.975 40.0799C73.0606 40.0799 68.25 44.1998 68.25 49.2649C68.25 54.33 73.0606 58.4499 78.975 58.4499C84.8893 58.4499 89.7 54.33 89.7 49.2649C89.7 44.1998 84.8893 40.0799 78.975 40.0799Z" fill="#1F212B"/>
</svg>
