<svg width="100" height="100" viewBox="0 0 100 100" fill="none" xmlns="http://www.w3.org/2000/svg">
<path d="M69.575 80H30.575C23.975 80 18.575 74.6 18.575 68V29C18.575 22.4 23.975 17 30.575 17H69.575C76.175 17 81.575 22.4 81.575 29V68C81.575 74.6 76.175 80 69.575 80Z" fill="#6475A5"/>
<path d="M69.575 81H30.575C23.407 81 17.575 75.168 17.575 68V29C17.575 21.832 23.407 16 30.575 16H69.575C76.743 16 82.575 21.832 82.575 29V68C82.575 75.168 76.743 81 69.575 81ZM30.575 18C24.51 18 19.575 22.935 19.575 29V68C19.575 74.065 24.51 79 30.575 79H69.575C75.64 79 80.575 74.065 80.575 68V29C80.575 22.935 75.64 18 69.575 18H30.575Z" fill="#1F212B"/>
<path d="M77.075 46.5V65.163C77.075 70.848 72.423 75.5 66.738 75.5H33.412C27.727 75.5 23.075 70.848 23.075 65.163V31.837C23.075 26.152 27.727 21.5 33.412 21.5H67.075" fill="#6475A5"/>
<path d="M66.738 76H33.412C27.436 76 22.575 71.139 22.575 65.163V31.837C22.575 25.861 27.436 21 33.412 21H67.075C67.351 21 67.575 21.224 67.575 21.5C67.575 21.776 67.351 22 67.075 22H33.412C27.988 22 23.575 26.413 23.575 31.837V65.163C23.575 70.587 27.988 75 33.412 75H66.738C72.162 75 76.575 70.587 76.575 65.163V46.5C76.575 46.224 76.799 46 77.075 46C77.351 46 77.575 46.224 77.575 46.5V65.163C77.575 71.139 72.713 76 66.738 76Z" fill="#1F212B"/>
<path d="M77.075 45C76.799 45 76.575 44.776 76.575 44.5V40.5C76.575 40.224 76.799 40 77.075 40C77.351 40 77.575 40.224 77.575 40.5V44.5C77.575 44.776 77.351 45 77.075 45ZM77.075 39C76.799 39 76.575 38.776 76.575 38.5V36.5C76.575 36.224 76.799 36 77.075 36C77.351 36 77.575 36.224 77.575 36.5V38.5C77.575 38.776 77.351 39 77.075 39Z" fill="#1F212B"/>
<path d="M45.075 39.137C45.075 39.996 45.075 43.5 45.075 43.5H42.075V48.5H45.075V64.5H52.075V48.5H56.188C56.188 48.5 56.573 46.113 56.759 43.5C56.223 43.5 51.075 43.5 51.075 43.5C51.075 43.5 51.075 40.354 51.075 39.8C51.075 39.247 51.8 38.5 52.517 38.5C53.234 38.5 55.64 38.5 57.075 38.5C57.075 37.712 57.075 35.007 57.075 32.5C55.168 32.5 52.994 32.5 52.04 32.5C44.907 32.508 45.075 38.277 45.075 39.137Z" fill="#FDFCEE"/>
<path d="M52.075 65H45.075C44.799 65 44.575 64.776 44.575 64.5V49H42.075C41.799 49 41.575 48.776 41.575 48.5V43.5C41.575 43.224 41.799 43 42.075 43H44.575V39.137H45.075L44.575 39.08C44.567 36.913 45.187 35.188 46.418 33.952C47.704 32.66 49.596 32.002 52.039 32H57.075C57.351 32 57.575 32.224 57.575 32.5V38.5C57.575 38.776 57.351 39 57.075 39H52.517C52.047 39 51.575 39.549 51.575 39.8V43H56.759C56.898 43 57.03 43.058 57.125 43.159C57.219 43.261 57.268 43.397 57.258 43.535C57.072 46.14 56.685 48.555 56.681 48.579C56.641 48.822 56.432 49 56.187 49H52.575V64.5C52.575 64.776 52.351 65 52.075 65ZM45.575 64H51.575V48.5C51.575 48.224 51.799 48 52.075 48H55.758C55.864 47.279 56.078 45.718 56.219 44H51.075C50.799 44 50.575 43.776 50.575 43.5V39.8C50.575 38.925 51.573 38 52.517 38H56.575V33H52.04C49.872 33.002 48.219 33.56 47.126 34.658C46.09 35.699 45.568 37.185 45.575 39.077V39.137V43.5C45.575 43.776 45.351 44 45.075 44H42.575V48H45.075C45.351 48 45.575 48.224 45.575 48.5V64Z" fill="#1F212B"/>
</svg>
