<svg width="100" height="100" viewBox="0 0 100 100" fill="none" xmlns="http://www.w3.org/2000/svg">
<path d="M82 31V69C82 71.01 81.54 72.92 80.73 74.62C79.61 76.95 77.81 78.91 75.58 80.2C73.65 81.35 71.4 82 69 82H31C29.53 82 28.11 81.75 26.79 81.3H26.78C24.35 80.47 22.26 78.95 20.73 76.96C19.02 74.76 18 72 18 69V31C18 30.41 18.04 29.83 18.12 29.26C18.22 28.49 18.39 27.74 18.63 27.02C20.3 21.79 25.21 18 31 18H69C69.43 18 69.85 18.02 70.26 18.06H70.29C71.06 18.14 71.8 18.28 72.52 18.49C77.22 19.81 80.85 23.7 81.76 28.56C81.85 29.01 81.91 29.47 81.95 29.94C81.99 30.29 82 30.64 82 31Z" fill="#4E5FD8"/>
<path d="M81.76 28.56C80.85 23.7 77.22 19.81 72.52 18.49C71.78 18.33 71.04 18.19 70.29 18.06H70.26C70.13 18.037 69.998 18.022 69.869 18H46.1C35.86 19.72 26.37 23.64 18.12 29.26C18.04 29.83 18 30.41 18 31V69C18 72 19.02 74.76 20.73 76.96C22.26 78.95 24.35 80.47 26.78 81.3H26.79C28.11 81.75 29.53 82 31 82H69C71.4 82 73.65 81.35 75.58 80.2C77.81 78.91 79.61 76.95 80.73 74.62C81.54 72.92 82 71.01 82 69V31C82 30.64 81.99 30.29 81.95 29.94C81.91 29.47 81.85 29.01 81.76 28.56Z" fill="#7550CC"/>
<path d="M82 31V69C82 71.01 81.54 72.92 80.73 74.62C79.61 76.95 77.81 78.91 75.58 80.2C73.65 81.35 71.4 82 69 82H31C29.53 82 28.11 81.75 26.79 81.3H26.78C24.35 80.47 22.26 78.95 20.73 76.96C19.02 74.76 18 72 18 69V38.03C28.95 29.25 42.86 24 58 24C66.4 24 74.42 25.62 81.76 28.56C81.85 29.01 81.91 29.47 81.95 29.94C81.99 30.29 82 30.64 82 31Z" fill="#9C32C8"/>
<path d="M82 36.29V69C82 71.01 81.54 72.92 80.73 74.62C79.61 76.95 77.81 78.91 75.58 80.2C73.65 81.35 71.4 82 69 82H31C29.53 82 28.11 81.75 26.79 81.3H26.78C24.35 80.47 22.26 78.95 20.73 76.96C19.02 74.76 18 72 18 69V47.41C28.28 37.26 42.41 31 58 31C66.57 31 74.71 32.89 82 36.29Z" fill="#D515A3"/>
<path d="M82 44.14V69C82 71.01 81.54 72.92 80.73 74.62C79.61 76.95 77.81 78.91 75.58 80.2C73.65 81.35 71.4 82 69 82H31C29.53 82 28.11 81.75 26.79 81.3H26.78C24.35 80.47 22.26 78.95 20.73 76.96C19.02 74.76 18 72 18 69V58.01C27.12 45.86 41.64 38 58 38C66.69 38 74.87 40.22 82 44.14Z" fill="#EC007A"/>
<path d="M82 66.07V69C82 72 80.98 74.76 79.27 76.96C77.74 78.95 75.65 80.47 73.22 81.3H73.21C71.89 81.75 70.47 82 69 82H31C28.6 82 26.35 81.35 24.42 80.2C22.19 78.91 20.39 76.95 19.27 74.62C18.46 72.92 18 71.01 18 69V54.54C25.38 48.57 34.77 45 45 45C60.74 45 74.5 53.45 82 66.07Z" fill="#FF492E"/>
<path d="M79.27 76.96C77.74 78.95 75.65 80.47 73.22 81.3H73.21C71.89 81.75 70.47 82 69 82H31C28.6 82 26.35 81.35 24.42 80.2C22.19 78.91 20.39 76.95 19.27 74.62C18.46 72.92 18 71.01 18 69V64.19C24.6 56.72 34.25 52 45 52C61.03 52 74.61 62.48 79.27 76.96Z" fill="#FF7A02"/>
<path d="M73.21 81.3C71.89 81.75 70.47 82 69 82H31C28.6 82 26.35 81.35 24.42 80.2C22.19 78.91 20.39 76.95 19.27 74.62C24.1 65.34 33.81 59 45 59C58.71 59 70.2 68.51 73.21 81.3Z" fill="#FFA823"/>
<path d="M66.17 82H31C28.6 82 26.35 81.35 24.42 80.2C27.57 71.9 35.6 66 45 66C55.07 66 63.56 72.77 66.17 82Z" fill="#FFCA58"/>
<path d="M58.75 82H31.25C33.57 76.7 38.85 73 45 73C51.15 73 56.43 76.7 58.75 82Z" fill="#FFDB73"/>
<path d="M60 26.5H40C32.556 26.5 26.5 32.556 26.5 40V60C26.5 67.444 32.556 73.5 40 73.5H60C67.444 73.5 73.5 67.444 73.5 60V40C73.5 32.556 67.444 26.5 60 26.5ZM69.5 60C69.5 65.238 65.238 69.5 60 69.5H40C34.762 69.5 30.5 65.238 30.5 60V40C30.5 34.762 34.762 30.5 40 30.5H60C65.238 30.5 69.5 34.762 69.5 40V60ZM50 61.5C43.659 61.5 38.5 56.341 38.5 50C38.5 43.659 43.659 38.5 50 38.5C56.341 38.5 61.5 43.659 61.5 50C61.5 56.341 56.341 61.5 50 61.5ZM50 42.5C45.864 42.5 42.5 45.865 42.5 50C42.5 54.135 45.864 57.5 50 57.5C54.136 57.5 57.5 54.135 57.5 50C57.5 45.865 54.136 42.5 50 42.5ZM65.5 37.5C65.5 39.157 64.157 40.5 62.5 40.5C60.843 40.5 59.5 39.157 59.5 37.5C59.5 35.843 60.843 34.5 62.5 34.5C64.157 34.5 65.5 35.843 65.5 37.5Z" fill="white"/>
<path d="M60 74H40C32.28 74 26 67.72 26 60V40C26 32.28 32.28 26 40 26H60C67.72 26 74 32.28 74 40V60C74 67.72 67.72 74 60 74ZM40 27C32.832 27 27 32.832 27 40V60C27 67.168 32.832 73 40 73H60C67.168 73 73 67.168 73 60V40C73 32.832 67.168 27 60 27H40ZM60 70H40C34.486 70 30 65.514 30 60V40C30 34.486 34.486 30 40 30H60C65.514 30 70 34.486 70 40V60C70 65.514 65.514 70 60 70ZM40 31C35.037 31 31 35.037 31 40V60C31 64.963 35.037 69 40 69H60C64.963 69 69 64.963 69 60V40C69 35.037 64.963 31 60 31H40ZM50 62C43.383 62 38 56.617 38 50C38 43.383 43.383 38 50 38C56.617 38 62 43.383 62 50C62 56.617 56.617 62 50 62ZM50 39C43.935 39 39 43.935 39 50C39 56.065 43.935 61 50 61C56.065 61 61 56.065 61 50C61 43.935 56.065 39 50 39ZM50 58C45.589 58 42 54.411 42 50C42 45.589 45.589 42 50 42C54.411 42 58 45.589 58 50C58 54.411 54.411 58 50 58ZM50 43C46.141 43 43 46.141 43 50C43 53.859 46.141 57 50 57C53.859 57 57 53.859 57 50C57 46.141 53.859 43 50 43ZM62.5 41C60.57 41 59 39.43 59 37.5C59 35.57 60.57 34 62.5 34C64.43 34 66 35.57 66 37.5C66 39.43 64.43 41 62.5 41ZM62.5 35C61.121 35 60 36.121 60 37.5C60 38.879 61.121 40 62.5 40C63.879 40 65 38.879 65 37.5C65 36.121 63.879 35 62.5 35ZM69 83H31C23.28 83 17 76.72 17 69V31C17 23.28 23.28 17 31 17H69C76.72 17 83 23.28 83 31V69C83 76.72 76.72 83 69 83ZM31 19C24.383 19 19 24.383 19 31V69C19 75.617 24.383 81 31 81H69C75.617 81 81 75.617 81 69V31C81 24.383 75.617 19 69 19H31Z" fill="#1F212B"/>
</svg>
