<svg width="100" height="100" viewBox="0 0 100 100" fill="none" xmlns="http://www.w3.org/2000/svg">
<path d="M69.307 81.654H30.307C23.707 81.654 18.307 76.254 18.307 69.654V30.654C18.307 24.054 23.707 18.654 30.307 18.654H69.307C75.907 18.654 81.307 24.054 81.307 30.654V69.654C81.307 76.254 75.907 81.654 69.307 81.654Z" fill="#78A1D1"/>
<path d="M69.307 82.654H30.307C23.139 82.654 17.307 76.822 17.307 69.654V30.654C17.307 23.486 23.139 17.654 30.307 17.654H69.307C76.475 17.654 82.307 23.486 82.307 30.654V69.654C82.307 76.822 76.476 82.654 69.307 82.654ZM30.307 19.654C24.242 19.654 19.307 24.589 19.307 30.654V69.654C19.307 75.719 24.242 80.654 30.307 80.654H69.307C75.372 80.654 80.307 75.719 80.307 69.654V30.654C80.307 24.589 75.372 19.654 69.307 19.654H30.307Z" fill="#1F212B"/>
<path d="M76.807 48.154V66.817C76.807 72.502 72.155 77.154 66.47 77.154H33.144C27.459 77.154 22.807 72.502 22.807 66.817V33.491C22.807 27.806 27.459 23.154 33.144 23.154H66.807" fill="#78A1D1"/>
<path d="M66.47 77.654H33.144C27.168 77.654 22.307 72.793 22.307 66.817V33.49C22.307 27.514 27.168 22.653 33.144 22.653H66.807C67.083 22.653 67.307 22.877 67.307 23.153C67.307 23.429 67.083 23.653 66.807 23.653H33.144C27.72 23.653 23.307 28.066 23.307 33.49V66.816C23.307 72.24 27.72 76.653 33.144 76.653H66.47C71.894 76.653 76.307 72.24 76.307 66.816V48.154C76.307 47.878 76.531 47.654 76.807 47.654C77.083 47.654 77.307 47.878 77.307 48.154V66.817C77.307 72.792 72.446 77.654 66.47 77.654Z" fill="#1F212B"/>
<path d="M76.807 46.654C76.531 46.654 76.307 46.43 76.307 46.154V42.154C76.307 41.878 76.531 41.654 76.807 41.654C77.083 41.654 77.307 41.878 77.307 42.154V46.154C77.307 46.43 77.083 46.654 76.807 46.654ZM76.807 40.654C76.531 40.654 76.307 40.43 76.307 40.154V38.154C76.307 37.878 76.531 37.654 76.807 37.654C77.083 37.654 77.307 37.878 77.307 38.154V40.154C77.307 40.43 77.083 40.654 76.807 40.654Z" fill="#1F212B"/>
<path d="M64.807 53.974V64.153H58.807L58.724 54.061C58.724 51.505 57.561 49.689 55.268 49.689C53.517 49.689 52.48 50.861 52.02 51.998C51.855 52.402 51.807 52.971 51.807 53.54V64.153H45.73C45.73 64.153 45.812 46.934 45.73 45.153H51.807V48.086C51.793 48.108 51.78 48.131 51.766 48.153H51.807V48.086C52.652 46.676 54.194 45.033 57.559 45.033C61.727 45.026 64.807 47.624 64.807 53.974ZM38.825 36.195C36.948 36.195 35.724 37.482 35.724 39.174C35.724 40.828 36.912 42.153 38.754 42.153H38.79C40.703 42.153 41.891 40.828 41.891 39.174C41.849 37.483 40.696 36.195 38.825 36.195ZM35.807 64.154H41.807V45.154H35.807V64.154Z" fill="#FDFCEE"/>
<path d="M64.807 64.654H58.807C58.533 64.654 58.309 64.433 58.307 64.158L58.224 54.066C58.224 52.898 57.936 50.19 55.268 50.19C53.484 50.19 52.727 51.586 52.484 52.187C52.367 52.474 52.308 52.93 52.308 53.541V64.154C52.308 64.43 52.084 64.654 51.808 64.654H45.73C45.597 64.654 45.469 64.601 45.376 64.507C45.283 64.413 45.23 64.285 45.23 64.152C45.231 63.98 45.311 46.926 45.23 45.177C45.224 45.041 45.273 44.907 45.368 44.809C45.463 44.71 45.593 44.654 45.73 44.654H51.807C52.083 44.654 52.307 44.878 52.307 45.154V46.584C53.595 45.203 55.378 44.546 57.578 44.534C59.766 44.534 61.546 45.202 62.866 46.52C64.486 48.137 65.307 50.645 65.307 53.976V64.155C65.307 64.43 65.083 64.654 64.807 64.654ZM59.303 63.654H64.307V53.975C64.307 50.92 63.584 48.65 62.159 47.227C61.034 46.103 59.492 45.534 57.577 45.534C57.571 45.534 57.566 45.534 57.56 45.534C54.345 45.534 52.999 47.091 52.268 48.29C52.193 48.489 52.015 48.654 51.807 48.654C51.626 48.654 51.439 48.556 51.35 48.399C51.273 48.262 51.25 48.099 51.307 47.958V45.654H46.243C46.296 48.681 46.244 60.957 46.232 63.654H51.307V53.54C51.307 52.787 51.389 52.221 51.557 51.809C52.22 50.169 53.608 49.189 55.267 49.189C57.707 49.189 59.223 51.056 59.223 54.062L59.303 63.654ZM41.807 64.654H35.807C35.531 64.654 35.307 64.43 35.307 64.154V45.154C35.307 44.878 35.531 44.654 35.807 44.654H41.807C42.083 44.654 42.307 44.878 42.307 45.154V64.154C42.307 64.43 42.083 64.654 41.807 64.654ZM36.307 63.654H41.307V45.654H36.307V63.654ZM38.789 42.654C36.708 42.654 35.224 41.191 35.224 39.175C35.224 37.159 36.739 35.696 38.826 35.696C40.874 35.696 42.341 37.122 42.391 39.163C42.391 41.191 40.876 42.654 38.789 42.654ZM38.825 36.695C37.293 36.695 36.223 37.715 36.223 39.174C36.223 40.633 37.264 41.653 38.753 41.653C40.32 41.653 41.39 40.633 41.39 39.174C41.353 37.673 40.346 36.695 38.825 36.695Z" fill="#1F212B"/>
</svg>
